<svg xmlns="http://www.w3.org/2000/svg" xmlns:xlink="http://www.w3.org/1999/xlink" version="1.1" x="0px" y="0px" viewBox="0 0 68 85" enable-background="new 0 0 68 68" xml:space="preserve"><g><path d="M37.0150146,27.4179039c-0.0552368-0.0366211-0.1132813-0.0617676-0.1690674-0.0962524   c-1.8250732-1.12677-4.0168457-1.1221313-5.8709717,0.1074829c-2.2397461,1.4663086-3.628418,4.3691406-3.628418,7.5786133   c0,4.2565308,2.4554443,7.7832642,5.6459961,8.4042358v-6.8270874c0-0.5522461,0.4477539-1,1-1s1,0.4477539,1,1v6.8275146   c3.1989136-0.619751,5.6611328-4.1471558,5.6611328-8.4046631C40.6536865,31.7953453,39.2596436,28.8866539,37.0150146,27.4179039z   "/><path d="M36.5628662,24.9525719v-1.1323242c0-0.6816406-0.2685547-1.3320313-0.7558594-1.8300781   c-0.480957-0.4814453-1.1113281-0.7402344-1.8144531-0.7402344c-1.4169922,0-2.5698242,1.152832-2.5698242,2.5703125v1.1416016   C33.0887451,24.3285484,34.9154053,24.3339195,36.5628662,24.9525719z"/><path d="M63.9199829,43.5799522c-0.1699829,0-0.3300171,0.0200195-0.4899902,0.0700073l-2.8500366-2.8999634   c-0.1799927-0.1900024-0.4400024-0.2999878-0.7099609-0.2999878h-6.1900024   c0.4599609-1.3900146,0.789978-2.8400269,0.9500122-4.3400269h5.6299438   c0.3500366,0.5900269,0.9800415,0.9899902,1.7000122,0.9899902c1.1000366,0,1.9899902-0.8900146,1.9899902-1.9899902   c0-1.0900269-0.8899536-1.9799805-1.9899902-1.9799805c-0.7199707,0-1.3499756,0.3999634-1.7000122,0.9799805h-5.5199585   c0-0.0700073,0.0100098-0.1300049,0.0100098-0.2000122c0-1.4199829-0.1400146-2.7999878-0.4100342-4.1300049h6.5599976   c0.5499878,0,1-0.4500122,1-1s-0.4500122-1-1-1h-7.0499878c-0.0100098,0-0.0100098,0-0.0200195,0   c-0.4799805-1.5299683-1.1399536-2.9699707-1.9400024-4.3299561h10.4299927   c0.3400269,0.5799561,0.9700317,0.9799805,1.6900024,0.9799805C65.1099854,24.4299889,66,23.5399742,66,22.4399986   c0-1.0900269-0.8900146-1.9700317-1.9900513-1.9700317c-0.7199707,0-1.3499756,0.3900146-1.6999512,0.9800415h-11.460022   c-0.0900269,0-0.1699829,0.0299683-0.2600098,0.0499878c-1.9099731-2.5499878-4.3800049-4.6400146-7.2399902-6.0900259V5.6899991   c0.5800171-0.3400269,0.9799805-0.9700317,0.9799805-1.700012c0-1.0900269-0.8899536-1.9899902-1.9799805-1.9899902   s-1.9799805,0.8999634-1.9799805,1.9899902c0,0.7299802,0.3899536,1.3499753,0.9799805,1.700012v8.8299561   c-1.3800049-0.5199585-2.8300171-0.8999634-4.3300171-1.1199951V7.109982c0-0.5499878-0.4500122-1-1-1   c-0.5599976,0-1,0.4500122-1,1v6.0999761C34.6799927,13.1899996,34.3399658,13.1499605,34,13.1499605   c-1.1300049,0-2.2300415,0.1199951-3.3200073,0.3000488V7.7399869c0.5899658-0.3400269,0.9799805-0.9700317,0.9799805-1.7000122   c0-1.0899658-0.8800049-1.9899902-1.9699707-1.9899902c-1.1000366,0-1.9900513,0.9000244-1.9900513,1.9899902   c0,0.7299805,0.4000244,1.3499756,0.9800415,1.7000122v6.1300054c-1.5100098,0.3999634-2.9700317,0.9599609-4.3300171,1.6799927   V8.130002c0-0.2600102-0.1099854-0.52002-0.2999878-0.7100224L21.1499634,4.570004   c0.0400391-0.1600342,0.0700073-0.3200073,0.0700073-0.4900513c0-1.0999753-0.8900146-1.98999-1.9799805-1.98999   c-1.0900269,0-1.9800415,0.8900146-1.9800415,1.98999c0,1.0900269,0.8900146,1.9800415,1.9800415,1.9800415   c0.1799927,0,0.3399658-0.0300293,0.5-0.0700073l2.6099854,2.559998v8.2000113   c-1.8900146,1.2799683-3.5300293,2.8800049-4.9099731,4.7000122h-11.75   c-0.3500366-0.5900269-0.9800415-0.9800415-1.7000122-0.9800415C2.8899536,20.4699669,2,21.3499718,2,22.4399986   c0,1.0999756,0.8899536,1.9899902,1.9899902,1.9899902c0.7199707,0,1.3499756-0.4000244,1.7000122-0.9799805h10.4199829   c-0.7999878,1.3599854-1.460022,2.7999878-1.9400024,4.3299561c-0.0100098,0-0.0100098,0-0.0200195,0H7.0999756   c-0.5499878,0-1,0.4500122-1,1s0.4500122,1,1,1h6.5599976C13.3899536,31.1099815,13.25,32.4899864,13.25,33.9099693   c0,0.0700073,0.0099487,0.1300049,0.0099487,0.2000122H7.7399902c-0.3500366-0.5800171-0.9800415-0.9799805-1.7000122-0.9799805   c-1.0999756,0-1.9899902,0.8899536-1.9899902,1.9799805c0,1.0999756,0.8900146,1.9899902,1.9899902,1.9899902   c0.7199707,0,1.3499756-0.3999634,1.7000122-0.9899902h5.6300049c0.1599731,1.5,0.4899902,2.9500122,0.9499512,4.3400269H8.1300049   c-0.2700195,0-0.5300293,0.1099854-0.710022,0.2999878l-2.8500366,2.8999634   C4.4099731,43.5999718,4.25,43.5799522,4.0799561,43.5799522c-1.0999756,0-1.9899902,0.8800049-1.9899902,1.9700317   c0,1.0999756,0.8900146,1.9899902,1.9899902,1.9899902c1.0900269,0,1.9700317-0.8900146,1.9700317-1.9899902   c0-0.1699829-0.0300293-0.3300171-0.0700073-0.4899902l2.5700073-2.6099854h6.5599976   c1.5800171,3.4899902,4.0999756,6.4799805,7.2399902,8.6199951v8.3899536l-2.6099854,2.5599976   c-0.1600342-0.039978-0.3200073-0.0699463-0.5-0.0699463c-1.0900269,0-1.9800415,0.8899536-1.9800415,1.9799805   c0,1.0899696,0.8900146,1.9799843,1.9800415,1.9799843c1.0899658,0,1.9799805-0.8900146,1.9799805-1.9799843   c0-0.1699829-0.0299683-0.3300171-0.0700073-0.4899902l2.9000244-2.8500366   c0.1900024-0.1900024,0.2999878-0.4500122,0.2999878-0.7199707V52.260006   c1.3599854,0.7199707,2.8200073,1.2799683,4.3300171,1.6799927v6.3299561   c-0.5800171,0.3400269-0.9800415,0.9700317-0.9800415,1.7000122c0,1.0900269,0.8900146,1.9800415,1.9900513,1.9800415   c1.0899658,0,1.9699707-0.8900146,1.9699707-1.9800415c0-0.7299805-0.3900146-1.3599854-0.9799805-1.7000122v-5.8999634   c1.0899658,0.1699829,2.1900024,0.289978,3.3200073,0.289978c0.3399658,0,0.6799927-0.0299683,1.0199585-0.0499878v6.289978   c0,0.5500488,0.4400024,1,1,1c0.5499878,0,1-0.4499512,1-1v-6.4799805c1.5-0.2299805,2.9500122-0.5999756,4.3300171-1.1300049   v9.0300293c-0.5900269,0.3399658-0.9799805,0.9699707-0.9799805,1.699955C40.3699951,65.1099854,41.2599487,66,42.3499756,66   s1.9799805-0.8900146,1.9799805-1.9800415c0-0.7299843-0.3999634-1.3599892-0.9799805-1.699955v-9.9100342   c4.210022-2.1400146,7.5900269-5.6499634,9.539978-9.9599609h6.5599976l2.5700073,2.6099854   c-0.039978,0.1599731-0.0700073,0.3200073-0.0700073,0.4899902c0,1.0999756,0.8800049,1.9899902,1.9700317,1.9899902   c1.0999756,0,1.9899902-0.8900146,1.9899902-1.9899902C65.9099731,44.4599571,65.0199585,43.5799522,63.9199829,43.5799522z    M48.1488037,31.8431969l-1.9941406,3.4360352c-0.0981445,0.1694336-0.2441406,0.3061523-0.4194336,0.3935547l-3.2979126,1.6394043   c-0.1641846,0.8862305-0.4204102,1.7294312-0.7566528,2.5159912l2.9520264,2.1395264   c0.2592773,0.1879883,0.4130859,0.4892578,0.4130859,0.8095703v4.7880859c0,0.5522461-0.4477539,1-1,1s-1-0.4477539-1-1v-4.277832   l-2.3203735-1.6817627c-1.5891113,2.383728-4.0153198,3.913208-6.7328491,3.913208   c-2.8128662,0-5.3085938-1.6488647-6.8884888-4.1851807l-2.2926636,1.6617432v4.277832c0,0.5522461-0.4477539,1-1,1   s-1-0.4477539-1-1v-4.7880859c0-0.3203125,0.1538086-0.621582,0.4130859-0.8095703l2.9718018-2.1538696   c-0.2749023-0.6987915-0.4908447-1.4367065-0.6337891-2.2098389l-3.2979736-1.6392212   c-0.175293-0.0874023-0.3212891-0.2241211-0.4194336-0.3935547l-1.9941406-3.4360352   c-0.2773438-0.4775391-0.1147461-1.0898438,0.362793-1.3666992c0.4770508-0.277832,1.0888672-0.1152344,1.3666992,0.362793   l1.8432617,3.1762695l1.9248657,0.956543c0.0045166-1.6491089,0.3377075-3.2269287,0.9180908-4.6472778l-3.1622925-3.1622925   c-0.1875-0.1875-0.2929688-0.4418945-0.2929688-0.7070313v-4.7880859c0-0.5522461,0.4477539-1,1-1s1,0.4477539,1,1v4.3740234   l2.4127197,2.4127197c0.6045532-0.9240112,1.3526001-1.7095337,2.1986084-2.348999v-2.2849121   c0-2.5200195,2.0498047-4.5703125,4.5698242-4.5703125c1.2280273,0,2.3774414,0.4736328,3.2373047,1.3339844   c0.8623047,0.8823242,1.3330078,2.0288086,1.3330078,3.2363281v2.2697144   c0.7717896,0.5823364,1.4542847,1.2930908,2.0275879,2.1148071l2.4553223-2.4553223v-4.3735352c0-0.5522461,0.4477539-1,1-1   s1,0.4477539,1,1v4.7875977c0,0.2651367-0.1054688,0.5195313-0.2929688,0.7070313l-3.1479492,3.1479492   c0.6627808,1.4971313,1.0418701,3.1859131,1.046814,4.9534302l1.9238892-0.9563599l1.84375-3.1762695   c0.2773438-0.4775391,0.8886719-0.6391602,1.3666992-0.362793C48.2635498,30.7533531,48.4261475,31.3656578,48.1488037,31.8431969z   "/></g><text x="0" y="83" fill="#000000" font-size="5px" font-weight="bold" font-family="'Helvetica Neue', Helvetica, Arial-Unicode, Arial, Sans-serif">Created by Vectors Point</text><text x="0" y="88" fill="#000000" font-size="5px" font-weight="bold" font-family="'Helvetica Neue', Helvetica, Arial-Unicode, Arial, Sans-serif">from the Noun Project</text></svg>